<svg width="97" height="28" viewBox="0 0 97 28" fill="none" xmlns="http://www.w3.org/2000/svg">
<path d="M96.3846 24.7709C96.3846 26.263 95.1508 27.4717 93.6246 27.4717H3.30208C1.77665 27.4717 0.538462 26.263 0.538462 24.7709V3.23266C0.538462 1.74121 1.77665 0.528305 3.30208 0.528305H93.6239C95.1508 0.528305 96.3839 1.74121 96.3839 3.23266L96.3846 24.7709Z" fill="black"/>
<path d="M93.3333 0.560876C94.9954 0.560876 96.3478 1.8795 96.3478 3.5V24.5C96.3478 26.1205 94.9954 27.4391 93.3333 27.4391H3.58974C1.92769 27.4391 0.575256 26.1205 0.575256 24.5V3.5C0.575256 1.8795 1.92769 0.560876 3.58974 0.560876H93.3333ZM93.3333 1.90735e-06H3.58974C1.61628 1.90735e-06 0 1.57588 0 3.5V24.5C0 26.4241 1.61628 28 3.58974 28H93.3333C95.3068 28 96.9231 26.4241 96.9231 24.5V3.5C96.9231 1.57588 95.3068 1.90735e-06 93.3333 1.90735e-06Z" fill="#A6A6A6"/>
<path d="M21.6304 13.8488C21.6095 11.5927 23.525 10.4951 23.6126 10.444C22.5278 8.90189 20.8464 8.69119 20.2555 8.67439C18.8433 8.52949 17.4734 9.49829 16.7541 9.49829C16.0203 9.49829 14.9125 8.68839 13.7186 8.71219C12.1822 8.73529 10.7448 9.60259 9.95652 10.9494C8.32965 13.6955 9.54298 17.731 11.1016 19.9507C11.8813 21.0378 12.7924 22.2516 13.9849 22.2089C15.1516 22.162 15.5874 21.4837 16.9953 21.4837C18.3903 21.4837 18.7995 22.2089 20.0157 22.1816C21.2678 22.162 22.0561 21.0896 22.8085 19.9927C23.7095 18.7467 24.0714 17.5196 24.0858 17.4566C24.0563 17.4468 21.6541 16.5529 21.6304 13.8488Z" fill="white"/>
<path d="M19.3329 7.21419C19.9604 6.44909 20.3897 5.40819 20.2706 4.35189C19.3624 4.39109 18.2266 4.96439 17.5725 5.71269C16.9939 6.37209 16.4769 7.45289 16.6105 8.46929C17.6307 8.54349 18.6782 7.96739 19.3329 7.21419Z" fill="white"/>
<path d="M38.5144 22.0528H36.8839L35.9908 19.3165H32.8864L32.0356 22.0528H30.4482L33.5239 12.7372H35.4236L38.5144 22.0528ZM35.7215 18.1685L34.9138 15.736C34.8284 15.4875 34.6683 14.9023 34.4321 13.9811H34.4034C34.3093 14.3773 34.1578 14.9625 33.9496 15.736L33.1563 18.1685H35.7215V18.1685Z" fill="white"/>
<path d="M46.424 18.6116C46.424 19.754 46.1074 20.657 45.4741 21.3199C44.907 21.91 44.2027 22.2047 43.3619 22.2047C42.4545 22.2047 41.8026 21.8869 41.4055 21.2513H41.3768V24.7898H39.8461V17.5469C39.8461 16.8287 39.8268 16.0916 39.7894 15.3356H41.1356L41.221 16.4003H41.2497C41.7602 15.5981 42.5349 15.1977 43.5745 15.1977C44.3872 15.1977 45.0656 15.5106 45.6084 16.1371C46.1526 16.7643 46.424 17.5889 46.424 18.6116ZM44.8646 18.6662C44.8646 18.0124 44.7138 17.4734 44.4109 17.0492C44.0799 16.6068 43.6355 16.3856 43.0784 16.3856C42.7007 16.3856 42.3575 16.5088 42.051 16.7517C41.7437 16.9967 41.5427 17.3166 41.4486 17.7128C41.4012 17.8976 41.3775 18.0488 41.3775 18.1678V19.2878C41.3775 19.7764 41.5312 20.1887 41.8385 20.5254C42.1457 20.8621 42.5449 21.0301 43.036 21.0301C43.6125 21.0301 44.0612 20.8131 44.3821 20.3805C44.7038 19.9472 44.8646 19.376 44.8646 18.6662Z" fill="white"/>
<path d="M54.348 18.6116C54.348 19.754 54.0314 20.657 53.3974 21.3199C52.831 21.91 52.1267 22.2047 51.2859 22.2047C50.3785 22.2047 49.7266 21.8869 49.3303 21.2513H49.3015V24.7898H47.7709V17.5469C47.7709 16.8287 47.7515 16.0916 47.7142 15.3356H49.0603L49.1457 16.4003H49.1745C49.6842 15.5981 50.4589 15.1977 51.4992 15.1977C52.3112 15.1977 52.9896 15.5106 53.5338 16.1371C54.0759 16.7643 54.348 17.5889 54.348 18.6116ZM52.7886 18.6662C52.7886 18.0124 52.6371 17.4734 52.3342 17.0492C52.0032 16.6068 51.5602 16.3856 51.0024 16.3856C50.624 16.3856 50.2815 16.5088 49.9743 16.7517C49.667 16.9967 49.4667 17.3166 49.3726 17.7128C49.3259 17.8976 49.3015 18.0488 49.3015 18.1678V19.2878C49.3015 19.7764 49.4552 20.1887 49.761 20.5254C50.0683 20.8614 50.4675 21.0301 50.96 21.0301C51.5365 21.0301 51.9852 20.8131 52.3062 20.3805C52.6278 19.9472 52.7886 19.376 52.7886 18.6662Z" fill="white"/>
<path d="M63.2075 19.4404C63.2075 20.2328 62.9253 20.8775 62.3589 21.3752C61.7364 21.9191 60.8698 22.1907 59.7563 22.1907C58.7282 22.1907 57.904 21.9975 57.2801 21.6104L57.6348 20.3665C58.3068 20.7627 59.0441 20.9615 59.8475 20.9615C60.424 20.9615 60.8727 20.8341 61.1951 20.5807C61.516 20.3273 61.6761 19.9871 61.6761 19.5629C61.6761 19.1849 61.544 18.8664 61.2791 18.6081C61.0156 18.3498 60.5755 18.1097 59.9609 17.8878C58.2881 17.2795 57.4524 16.3884 57.4524 15.2166C57.4524 14.4508 57.7453 13.8229 58.3319 13.3343C58.9163 12.845 59.696 12.6007 60.671 12.6007C61.5404 12.6007 62.2627 12.7484 62.8392 13.0431L62.4565 14.2597C61.918 13.9741 61.3092 13.8313 60.6279 13.8313C60.0894 13.8313 59.6687 13.9608 59.3672 14.2184C59.1123 14.4487 58.9845 14.7294 58.9845 15.0619C58.9845 15.4301 59.1303 15.7346 59.4232 15.974C59.678 16.1952 60.1411 16.4346 60.8131 16.6929C61.6352 17.0156 62.239 17.3929 62.6274 17.8255C63.0144 18.2567 63.2075 18.7964 63.2075 19.4404Z" fill="white"/>
<path d="M68.2683 16.4556H66.5811V19.7169C66.5811 20.5464 66.8784 20.9608 67.4743 20.9608C67.7478 20.9608 67.9747 20.9377 68.1542 20.8915L68.1965 22.0248C67.895 22.1347 67.498 22.19 67.0062 22.19C66.4016 22.19 65.9292 22.0101 65.5882 21.651C65.2486 21.2912 65.0777 20.6878 65.0777 19.8401V16.4542H64.0726V15.3342H65.0777V14.1043L66.5811 13.6619V15.3342H68.2683V16.4556Z" fill="white"/>
<path d="M75.8807 18.6389C75.8807 19.6714 75.5777 20.5191 74.9732 21.182C74.3393 21.8645 73.4978 22.2047 72.4489 22.2047C71.438 22.2047 70.6332 21.8778 70.033 21.224C69.4328 20.5702 69.1327 19.7449 69.1327 18.7502C69.1327 17.7093 69.4414 16.8567 70.061 16.1938C70.6792 15.5302 71.5134 15.1984 72.5623 15.1984C73.5732 15.1984 74.3867 15.5253 75.0005 16.1798C75.5878 16.8147 75.8807 17.6344 75.8807 18.6389ZM74.2926 18.6872C74.2926 18.0677 74.1569 17.5364 73.8819 17.0933C73.561 16.5571 73.1022 16.2897 72.5078 16.2897C71.8925 16.2897 71.4251 16.5578 71.1042 17.0933C70.8292 17.5371 70.6935 18.0768 70.6935 18.7152C70.6935 19.3347 70.8292 19.866 71.1042 20.3084C71.4352 20.8446 71.8975 21.112 72.4941 21.112C73.0786 21.112 73.5373 20.839 73.8683 20.2944C74.1504 19.8429 74.2926 19.306 74.2926 18.6872Z" fill="white"/>
<path d="M80.8561 16.6481C80.7046 16.6208 80.5431 16.6068 80.3736 16.6068C79.8352 16.6068 79.4188 16.8049 79.1258 17.2018C78.871 17.5518 78.7432 17.9942 78.7432 18.5283V22.0528H77.2132L77.2276 17.451C77.2276 16.6768 77.2082 15.9719 77.1701 15.3363H78.5034L78.5594 16.6215H78.6017C78.7633 16.1798 79.0181 15.8242 79.3671 15.5575C79.7081 15.3174 80.0764 15.1977 80.4734 15.1977C80.6149 15.1977 80.7427 15.2075 80.8561 15.225V16.6481Z" fill="white"/>
<path d="M87.7017 18.3764C87.7017 18.6438 87.6838 18.8692 87.6457 19.0533H83.0537C83.0717 19.7169 83.2935 20.2244 83.72 20.5744C84.107 20.8873 84.6074 21.0441 85.2219 21.0441C85.9018 21.0441 86.5222 20.9384 87.08 20.7263L87.3198 21.7623C86.6679 22.0395 85.8983 22.1774 85.0102 22.1774C83.9418 22.1774 83.1033 21.8708 82.493 21.2583C81.8842 20.6458 81.5791 19.8233 81.5791 18.7915C81.5791 17.7786 81.8627 16.9351 82.4306 16.2624C83.025 15.5442 83.8284 15.1851 84.8393 15.1851C85.8322 15.1851 86.5839 15.5442 87.0944 16.2624C87.4986 16.8329 87.7017 17.5385 87.7017 18.3764ZM86.2422 17.9893C86.2522 17.5469 86.1524 17.1647 85.9449 16.842C85.68 16.4269 85.2729 16.2197 84.7251 16.2197C84.2247 16.2197 83.8176 16.422 83.5068 16.828C83.2519 17.1507 83.1004 17.5378 83.0537 17.9886H86.2422V17.9893Z" fill="white"/>
<path d="M35.2154 7.00631C35.2154 7.83021 34.962 8.4504 34.4558 8.8669C33.987 9.2512 33.3207 9.4437 32.4577 9.4437C32.0298 9.4437 31.6637 9.4255 31.3571 9.3891V4.88741C31.757 4.82441 32.1878 4.79221 32.653 4.79221C33.4751 4.79221 34.0947 4.96651 34.5125 5.31511C34.9806 5.70921 35.2154 6.27271 35.2154 7.00631ZM34.4221 7.02661C34.4221 6.49251 34.277 6.08301 33.987 5.79741C33.6969 5.51251 33.2733 5.36971 32.7155 5.36971C32.4786 5.36971 32.2768 5.38511 32.1095 5.41731V8.83961C32.2022 8.85361 32.3716 8.8599 32.6178 8.8599C33.1936 8.8599 33.6381 8.7038 33.9511 8.3916C34.2641 8.0794 34.4221 7.62441 34.4221 7.02661Z" fill="white"/>
<path d="M39.4219 7.7259C39.4219 8.2334 39.2732 8.6492 38.976 8.9754C38.6644 9.3107 38.2516 9.478 37.7361 9.478C37.2393 9.478 36.8437 9.3177 36.5486 8.9957C36.2543 8.6744 36.1071 8.2691 36.1071 7.7805C36.1071 7.2695 36.2586 6.8502 36.563 6.5247C36.8674 6.1992 37.2766 6.0361 37.7921 6.0361C38.2889 6.0361 38.6881 6.1964 38.9904 6.5177C39.2775 6.8299 39.4219 7.2331 39.4219 7.7259ZM38.6414 7.7497C38.6414 7.4452 38.574 7.1841 38.4397 6.9664C38.2817 6.7032 38.057 6.5716 37.7648 6.5716C37.4626 6.5716 37.2328 6.7032 37.0749 6.9664C36.9399 7.1841 36.8731 7.4494 36.8731 7.763C36.8731 8.0675 36.9406 8.3286 37.0749 8.5463C37.2378 8.8095 37.4647 8.9411 37.7576 8.9411C38.0448 8.9411 38.2703 8.8074 38.4325 8.5393C38.5718 8.3174 38.6414 8.0542 38.6414 7.7497Z" fill="white"/>
<path d="M45.062 6.1033L44.0031 9.4031H43.3138L42.8752 7.9702C42.7639 7.6125 42.6734 7.2569 42.6031 6.9041H42.5894C42.5241 7.2667 42.4336 7.6216 42.3173 7.9702L41.8514 9.4031H41.1543L40.1585 6.1033H40.9317L41.3144 7.672C41.407 8.043 41.4831 8.3965 41.5441 8.7311H41.5577C41.6137 8.4553 41.7064 8.1039 41.837 7.679L42.3173 6.104H42.9305L43.3907 7.6454C43.5019 8.0213 43.5924 8.3832 43.662 8.7318H43.6829C43.7338 8.3923 43.8107 8.0304 43.9126 7.6454L44.3233 6.104H45.062V6.1033Z" fill="white"/>
<path d="M48.9627 9.40311H48.2103V7.51311C48.2103 6.93071 47.9834 6.63951 47.5282 6.63951C47.3049 6.63951 47.1247 6.71931 46.9847 6.87961C46.8462 7.03991 46.7758 7.22891 46.7758 7.44521V9.40241H46.0234V7.04621C46.0234 6.75641 46.0141 6.44211 45.9961 6.10191H46.6573L46.6925 6.61781H46.7133C46.8009 6.45751 46.9316 6.32521 47.1032 6.21951C47.3071 6.09631 47.5354 6.03401 47.7852 6.03401C48.1011 6.03401 48.3639 6.13341 48.5728 6.33291C48.8327 6.57721 48.9627 6.94191 48.9627 7.42631V9.40311V9.40311Z" fill="white"/>
<path d="M51.0375 9.4031H50.2859V4.5892H51.0375V9.4031Z" fill="white"/>
<path d="M55.4673 7.7259C55.4673 8.2334 55.3187 8.6492 55.0214 8.9754C54.7099 9.3107 54.2963 9.478 53.7816 9.478C53.284 9.478 52.8884 9.3177 52.5941 8.9957C52.2997 8.6744 52.1525 8.2691 52.1525 7.7805C52.1525 7.2695 52.304 6.8502 52.6084 6.5247C52.9128 6.1992 53.3221 6.0361 53.8368 6.0361C54.3344 6.0361 54.7328 6.1964 55.0358 6.5177C55.323 6.8299 55.4673 7.2331 55.4673 7.7259ZM54.6862 7.7497C54.6862 7.4452 54.6187 7.1841 54.4844 6.9664C54.3272 6.7032 54.1018 6.5716 53.8103 6.5716C53.5073 6.5716 53.2775 6.7032 53.1203 6.9664C52.9853 7.1841 52.9186 7.4494 52.9186 7.763C52.9186 8.0675 52.9861 8.3286 53.1203 8.5463C53.2833 8.8095 53.5102 8.9411 53.8031 8.9411C54.0903 8.9411 54.315 8.8074 54.4772 8.5393C54.6172 8.3174 54.6862 8.0542 54.6862 7.7497Z" fill="white"/>
<path d="M59.1087 9.4031H58.4331L58.3771 9.023H58.3563C58.1251 9.3261 57.7956 9.478 57.3677 9.478C57.0482 9.478 56.7898 9.3779 56.5952 9.1791C56.4186 8.9985 56.3303 8.7738 56.3303 8.5071C56.3303 8.1039 56.5026 7.7966 56.8493 7.5838C57.1954 7.371 57.6822 7.2667 58.3089 7.2716V7.21C58.3089 6.7753 58.0749 6.5583 57.6061 6.5583C57.2722 6.5583 56.9779 6.6402 56.7237 6.8026L56.5708 6.321C56.8852 6.1313 57.2736 6.0361 57.7317 6.0361C58.6162 6.0361 59.0599 6.4911 59.0599 7.4011V8.6163C59.0599 8.946 59.0764 9.2085 59.1087 9.4031ZM58.3276 8.2691V7.7602C57.4976 7.7462 57.0827 7.9681 57.0827 8.4252C57.0827 8.5974 57.1301 8.7262 57.227 8.8123C57.3239 8.8984 57.4474 8.9411 57.5946 8.9411C57.7597 8.9411 57.9141 8.89 58.0548 8.7885C58.1962 8.6863 58.2831 8.5568 58.3154 8.3979C58.3233 8.3622 58.3276 8.3188 58.3276 8.2691Z" fill="white"/>
<path d="M63.3841 9.4031H62.7164L62.6812 8.8732H62.6604C62.4472 9.2764 62.0839 9.478 61.5734 9.478C61.1657 9.478 60.8261 9.3219 60.5568 9.0097C60.2876 8.6975 60.1534 8.2922 60.1534 7.7945C60.1534 7.2604 60.2991 6.8278 60.592 6.4974C60.8756 6.1894 61.2231 6.0354 61.6366 6.0354C62.0911 6.0354 62.4091 6.1845 62.5901 6.4834H62.6044V4.5892H63.3575V8.5141C63.3575 8.8354 63.3662 9.1315 63.3841 9.4031ZM62.6044 8.0115V7.4613C62.6044 7.3661 62.5972 7.2891 62.5836 7.2303C62.5412 7.0539 62.4501 6.9055 62.3115 6.7858C62.1715 6.6661 62.0028 6.6059 61.8082 6.6059C61.5275 6.6059 61.3078 6.7144 61.1463 6.9321C60.9862 7.1498 60.905 7.4277 60.905 7.7672C60.905 8.0934 60.9819 8.358 61.1362 8.5617C61.2992 8.7787 61.5189 8.8872 61.7939 8.8872C62.0408 8.8872 62.2383 8.7969 62.3883 8.6156C62.5333 8.4483 62.6044 8.2467 62.6044 8.0115Z" fill="white"/>
<path d="M69.8191 7.7259C69.8191 8.2334 69.6705 8.6492 69.3732 8.9754C69.0616 9.3107 68.6495 9.478 68.1333 9.478C67.6372 9.478 67.2417 9.3177 66.9459 8.9957C66.6515 8.6744 66.5043 8.2691 66.5043 7.7805C66.5043 7.2695 66.6558 6.8502 66.9602 6.5247C67.2646 6.1992 67.6739 6.0361 68.1901 6.0361C68.6862 6.0361 69.0861 6.1964 69.3876 6.5177C69.6748 6.8299 69.8191 7.2331 69.8191 7.7259ZM69.0394 7.7497C69.0394 7.4452 68.9719 7.1841 68.8376 6.9664C68.679 6.7032 68.455 6.5716 68.1621 6.5716C67.8605 6.5716 67.6308 6.7032 67.4721 6.9664C67.3371 7.1841 67.2704 7.4494 67.2704 7.763C67.2704 8.0675 67.3379 8.3286 67.4721 8.5463C67.6351 8.8095 67.862 8.9411 68.1549 8.9411C68.4421 8.9411 68.6682 8.8074 68.8305 8.5393C68.969 8.3174 69.0394 8.0542 69.0394 7.7497Z" fill="white"/>
<path d="M73.8647 9.40311H73.113V7.51311C73.113 6.93071 72.8862 6.63951 72.4303 6.63951C72.207 6.63951 72.0268 6.71931 71.8875 6.87961C71.7482 7.03991 71.6786 7.22891 71.6786 7.44521V9.40241H70.9254V7.04621C70.9254 6.75641 70.9168 6.44211 70.8989 6.10191H71.5594L71.5946 6.61781H71.6154C71.7037 6.45751 71.8344 6.32521 72.0052 6.21951C72.2099 6.09631 72.4374 6.03401 72.688 6.03401C73.0032 6.03401 73.266 6.13341 73.4749 6.33291C73.7355 6.57721 73.8647 6.94191 73.8647 7.42631V9.40311V9.40311Z" fill="white"/>
<path d="M78.9284 6.65281H78.0999V8.25581C78.0999 8.66321 78.2471 8.86691 78.5386 8.86691C78.6735 8.86691 78.7856 8.85571 78.8739 8.83261L78.8932 9.38911C78.7446 9.44371 78.5493 9.47101 78.3088 9.47101C78.0116 9.47101 77.7804 9.38281 77.6131 9.20641C77.4451 9.03001 77.3619 8.73321 77.3619 8.31671V6.65281H76.8672V6.10331H77.3619V5.49851L78.0992 5.28151V6.10261H78.9277V6.65281H78.9284Z" fill="white"/>
<path d="M82.9116 9.4031H82.1585V7.5271C82.1585 6.9356 81.9316 6.6395 81.4771 6.6395C81.1282 6.6395 80.8899 6.811 80.7592 7.154C80.7369 7.2261 80.724 7.3143 80.724 7.4179V9.4024H79.9723V4.5892H80.724V6.5779H80.7384C80.9753 6.216 81.3149 6.0354 81.755 6.0354C82.0666 6.0354 82.3243 6.1348 82.5289 6.3343C82.7838 6.5828 82.9116 6.9524 82.9116 7.441V9.4031V9.4031Z" fill="white"/>
<path d="M87.0204 7.5971C87.0204 7.7287 87.0103 7.8393 86.9924 7.9296H84.7359C84.7459 8.2558 84.8536 8.5043 85.0626 8.6765C85.2535 8.8305 85.4998 8.9075 85.8013 8.9075C86.1352 8.9075 86.4396 8.8557 86.7138 8.7514L86.8316 9.261C86.5107 9.3968 86.133 9.4647 85.6958 9.4647C85.1717 9.4647 84.7589 9.3142 84.4602 9.0132C84.1601 8.7122 84.0115 8.3083 84.0115 7.8015C84.0115 7.3038 84.15 6.8894 84.4293 6.559C84.7208 6.2062 85.115 6.0298 85.6125 6.0298C86.0993 6.0298 86.469 6.2062 86.7189 6.559C86.9206 6.839 87.0204 7.1855 87.0204 7.5971ZM86.3025 7.4074C86.3082 7.1897 86.2587 7.0021 86.1567 6.8439C86.026 6.6402 85.8272 6.538 85.5579 6.538C85.3124 6.538 85.1121 6.6374 84.9592 6.8369C84.8342 6.9958 84.7603 7.1855 84.7359 7.4074H86.3025Z" fill="white"/>
</svg>
