<svg width="97" height="28" viewBox="0 0 97 28" fill="none" xmlns="http://www.w3.org/2000/svg">
<path d="M93.205 28H3.58481C1.61406 28 0 26.4241 0 24.5V3.5C0 1.57588 1.61406 4.76837e-07 3.58481 4.76837e-07H93.205C95.1758 4.76837e-07 96.7899 1.57588 96.7899 3.5V24.5C96.7899 26.4241 95.1758 28 93.205 28Z" fill="black"/>
<path d="M93.205 0.560874C94.8648 0.560874 96.2154 1.8795 96.2154 3.5V24.5C96.2154 26.1205 94.8648 27.4391 93.205 27.4391H3.58481C1.92504 27.4391 0.574466 26.1205 0.574466 24.5V3.5C0.574466 1.8795 1.92504 0.560874 3.58481 0.560874H93.205ZM93.205 4.76837e-07H3.58481C1.61406 4.76837e-07 0 1.57588 0 3.5V24.5C0 26.4241 1.61406 28 3.58481 28H93.205C95.1758 28 96.7899 26.4241 96.7899 24.5V3.5C96.7899 1.57588 95.1758 4.76837e-07 93.205 4.76837e-07Z" fill="#A6A6A6"/>
<path d="M33.9965 7.17062C33.9965 7.75512 33.8173 8.22325 33.4642 8.57237C33.0582 8.98625 32.5295 9.1945 31.8815 9.1945C31.2622 9.1945 30.7335 8.98275 30.2997 8.56537C29.865 8.14187 29.6482 7.62212 29.6482 7C29.6482 6.37787 29.865 5.85812 30.2997 5.43812C30.7335 5.01725 31.2622 4.8055 31.8815 4.8055C32.1898 4.8055 32.4837 4.86763 32.7643 4.98312C33.0439 5.0995 33.2715 5.257 33.4364 5.45125L33.0618 5.8205C32.7741 5.48888 32.3825 5.32525 31.8815 5.32525C31.4298 5.32525 31.0382 5.47925 30.7057 5.78987C30.3768 6.10137 30.2119 6.50475 30.2119 7C30.2119 7.49525 30.3768 7.90212 30.7057 8.21362C31.0382 8.52075 31.4298 8.67825 31.8815 8.67825C32.361 8.67825 32.7643 8.52075 33.0824 8.21012C33.2921 8.0045 33.4113 7.721 33.4427 7.35875H31.8815V6.853H33.9643C33.9894 6.96237 33.9965 7.06825 33.9965 7.17062V7.17062Z" fill="white" stroke="white" stroke-width="0.16" stroke-miterlimit="10"/>
<path d="M37.3008 5.41712H35.3444V6.74712H37.1081V7.25287H35.3444V8.58287H37.3008V9.09824H34.7906V4.90174H37.3008V5.41712Z" fill="white" stroke="white" stroke-width="0.16" stroke-miterlimit="10"/>
<path d="M39.6327 9.09824H39.0789V5.41712H37.8789V4.90174H40.8337V5.41712H39.6327V9.09824V9.09824Z" fill="white" stroke="white" stroke-width="0.16" stroke-miterlimit="10"/>
<path d="M42.972 9.09824V4.90174H43.525V9.09824H42.972Z" fill="white" stroke="white" stroke-width="0.16" stroke-miterlimit="10"/>
<path d="M45.9761 9.09824H45.4267V5.41712H44.2222V4.90174H47.1806V5.41712H45.9761V9.09824Z" fill="white" stroke="white" stroke-width="0.16" stroke-miterlimit="10"/>
<path d="M52.7747 8.55837C52.3508 8.98275 51.8256 9.1945 51.1991 9.1945C50.5691 9.1945 50.0439 8.98275 49.62 8.55837C49.197 8.13487 48.9864 7.61512 48.9864 7C48.9864 6.38487 49.197 5.86512 49.62 5.44162C50.0439 5.01725 50.5691 4.8055 51.1991 4.8055C51.822 4.8055 52.3472 5.01725 52.7711 5.44512C53.1977 5.87212 53.4083 6.38837 53.4083 7C53.4083 7.61512 53.1977 8.13487 52.7747 8.55837ZM50.0296 8.20662C50.3486 8.52075 50.7367 8.67825 51.1991 8.67825C51.658 8.67825 52.0496 8.52075 52.3651 8.20662C52.6833 7.8925 52.8446 7.48912 52.8446 7C52.8446 6.51087 52.6833 6.1075 52.3651 5.79337C52.0496 5.47925 51.658 5.32175 51.1991 5.32175C50.7367 5.32175 50.3486 5.47925 50.0296 5.79337C49.7114 6.1075 49.5501 6.51087 49.5501 7C49.5501 7.48912 49.7114 7.8925 50.0296 8.20662V8.20662Z" fill="white" stroke="white" stroke-width="0.16" stroke-miterlimit="10"/>
<path d="M54.1853 9.09824V4.90174H54.8574L56.9474 8.16549H56.9716L56.9474 7.35874V4.90174H57.5003V9.09824H56.9232L54.7346 5.67349H54.7104L54.7346 6.48374V9.09824H54.1853V9.09824Z" fill="white" stroke="white" stroke-width="0.16" stroke-miterlimit="10"/>
<path d="M48.8502 15.2268C47.1662 15.2268 45.7906 16.478 45.7906 18.2044C45.7906 19.9168 47.1662 21.1811 48.8502 21.1811C50.5377 21.1811 51.9134 19.9168 51.9134 18.2044C51.9134 16.478 50.5377 15.2268 48.8502 15.2268ZM48.8502 20.0086C47.9262 20.0086 47.1313 19.264 47.1313 18.2044C47.1313 17.1308 47.9262 16.3993 48.8502 16.3993C49.7742 16.3993 50.5727 17.1308 50.5727 18.2044C50.5727 19.264 49.7742 20.0086 48.8502 20.0086V20.0086ZM42.1744 15.2268C40.4868 15.2268 39.1147 16.478 39.1147 18.2044C39.1147 19.9168 40.4868 21.1811 42.1744 21.1811C43.861 21.1811 45.234 19.9168 45.234 18.2044C45.234 16.478 43.861 15.2268 42.1744 15.2268ZM42.1744 20.0086C41.2495 20.0086 40.4519 19.264 40.4519 18.2044C40.4519 17.1308 41.2495 16.3993 42.1744 16.3993C43.0984 16.3993 43.8933 17.1308 43.8933 18.2044C43.8933 19.264 43.0984 20.0086 42.1744 20.0086ZM34.2304 16.1394V17.4046H37.325C37.2345 18.1116 36.9925 18.6314 36.6215 18.9936C36.1698 19.4311 35.4663 19.9168 34.2304 19.9168C32.326 19.9168 30.8347 18.4161 30.8347 16.5568C30.8347 14.6974 32.326 13.1968 34.2304 13.1968C35.2602 13.1968 36.0094 13.5896 36.5624 14.0989L37.4756 13.2073C36.7022 12.4863 35.6733 11.9324 34.2304 11.9324C31.6189 11.9324 29.4241 14.007 29.4241 16.5568C29.4241 19.1065 31.6189 21.1811 34.2304 21.1811C35.642 21.1811 36.7022 20.7296 37.5356 19.8826C38.3897 19.0488 38.6559 17.8763 38.6559 16.9295C38.6559 16.6355 38.6308 16.3651 38.586 16.1394H34.2304ZM66.7142 17.1203C66.4624 16.4544 65.6853 15.2268 64.1026 15.2268C62.5343 15.2268 61.2285 16.4334 61.2285 18.2044C61.2285 19.8721 62.5209 21.1811 64.2532 21.1811C65.654 21.1811 66.4623 20.3473 66.7948 19.8616L65.7552 19.1853C65.4084 19.6805 64.9361 20.0086 64.2532 20.0086C63.5748 20.0086 63.0881 19.705 62.7763 19.1065L66.8549 17.4589L66.7142 17.1203V17.1203ZM62.5558 18.1116C62.5209 16.9636 63.469 16.3756 64.1484 16.3756C64.6807 16.3756 65.1324 16.6355 65.2829 17.0074L62.5558 18.1116V18.1116ZM59.2408 21H60.5815V12.25H59.2408V21ZM57.0451 15.89H57.0002C56.6991 15.5418 56.1247 15.2268 55.3969 15.2268C53.8698 15.2268 52.4735 16.5358 52.4735 18.214C52.4735 19.8826 53.8698 21.1811 55.3969 21.1811C56.1247 21.1811 56.6991 20.8635 57.0002 20.5048H57.0451V20.9318C57.0451 22.0701 56.4222 22.6818 55.4176 22.6818C54.5984 22.6818 54.0903 22.1043 53.8806 21.6186L52.7146 22.0938C53.0507 22.883 53.9406 23.8543 55.4176 23.8543C56.9895 23.8543 58.3159 22.9513 58.3159 20.7541V15.4079H57.0451V15.89V15.89ZM55.5117 20.0086C54.5877 20.0086 53.8142 19.2535 53.8142 18.214C53.8142 17.1649 54.5877 16.3993 55.5117 16.3993C56.4222 16.3993 57.1401 17.1649 57.1401 18.214C57.1401 19.2535 56.4222 20.0086 55.5117 20.0086V20.0086ZM72.9912 12.25H69.7846V21H71.1217V17.6846H72.9912C74.4762 17.6846 75.9325 16.6355 75.9325 14.9669C75.9325 13.2991 74.4726 12.25 72.9912 12.25V12.25ZM73.0261 16.4675H71.1217V13.4671H73.0261C74.0245 13.4671 74.5945 14.2765 74.5945 14.9669C74.5945 15.6441 74.0245 16.4675 73.0261 16.4675ZM81.2918 15.2101C80.3257 15.2101 79.3211 15.6266 78.9079 16.5498L80.0945 17.0354C80.3499 16.5498 80.8195 16.3923 81.316 16.3923C82.0097 16.3923 82.7132 16.7991 82.7239 17.5175V17.6094C82.482 17.4729 81.964 17.2708 81.3268 17.2708C80.0488 17.2708 78.7466 17.9576 78.7466 19.2395C78.7466 20.412 79.7934 21.1671 80.9701 21.1671C81.8699 21.1671 82.3664 20.7708 82.6782 20.3096H82.7239V20.986H84.0154V17.6295C84.0154 16.0781 82.8288 15.2101 81.2918 15.2101ZM81.1305 20.0051C80.6931 20.0051 80.0837 19.7934 80.0837 19.264C80.0837 18.5868 80.8437 18.3269 81.5015 18.3269C82.0903 18.3269 82.3664 18.4538 82.7239 18.6209C82.6191 19.4311 81.9048 20.0051 81.1305 20.0051V20.0051ZM88.7204 15.4018L87.1834 19.1949H87.1377L85.5488 15.4018H84.1068L86.4943 20.7025L85.132 23.6521H86.5292L90.2081 15.4018H88.7204V15.4018ZM76.6674 21H78.0081V12.25H76.6674V21Z" fill="white"/>
<path d="M7.4815 5.27712C7.27089 5.49237 7.14901 5.82749 7.14901 6.26149V21.742C7.14901 22.176 7.27089 22.5111 7.4815 22.7264L7.53348 22.7736L16.4184 14.1024V13.8976L7.53348 5.22637L7.4815 5.27712Z" fill="url(#paint0_linear_1380_35)"/>
<path d="M19.3768 16.9942L16.4184 14.1024V13.8976L19.3804 11.0057L19.4467 11.0434L22.9544 12.992C23.9555 13.545 23.9555 14.455 22.9544 15.0115L19.4467 16.9566L19.3768 16.9942V16.9942Z" fill="url(#paint1_linear_1380_35)"/>
<path d="M19.4467 16.9566L16.4184 14L7.4815 22.7264C7.81399 23.0676 8.35619 23.1087 8.97278 22.7675L19.4467 16.9566" fill="url(#paint2_linear_1380_35)"/>
<path d="M19.4467 11.0434L8.97278 5.2325C8.35619 4.89475 7.81399 4.93588 7.4815 5.27713L16.4184 14L19.4467 11.0434Z" fill="url(#paint3_linear_1380_35)"/>
<defs>
<linearGradient id="paint0_linear_1380_35" x1="15.6296" y1="21.9032" x2="3.88524" y2="9.87432" gradientUnits="userSpaceOnUse">
<stop stop-color="#00A0FF"/>
<stop offset="0.0066" stop-color="#00A1FF"/>
<stop offset="0.2601" stop-color="#00BEFF"/>
<stop offset="0.5122" stop-color="#00D2FF"/>
<stop offset="0.7604" stop-color="#00DFFF"/>
<stop offset="1" stop-color="#00E3FF"/>
</linearGradient>
<linearGradient id="paint1_linear_1380_35" x1="24.258" y1="13.999" x2="6.90971" y2="13.999" gradientUnits="userSpaceOnUse">
<stop stop-color="#FFE000"/>
<stop offset="0.4087" stop-color="#FFBD00"/>
<stop offset="0.7754" stop-color="#FFA500"/>
<stop offset="1" stop-color="#FF9C00"/>
</linearGradient>
<linearGradient id="paint2_linear_1380_35" x1="17.8" y1="12.3927" x2="1.87377" y2="-3.91943" gradientUnits="userSpaceOnUse">
<stop stop-color="#FF3A44"/>
<stop offset="1" stop-color="#C31162"/>
</linearGradient>
<linearGradient id="paint3_linear_1380_35" x1="5.23189" y1="27.8767" x2="12.3437" y2="20.5926" gradientUnits="userSpaceOnUse">
<stop stop-color="#32A071"/>
<stop offset="0.0685" stop-color="#2DA771"/>
<stop offset="0.4762" stop-color="#15CF74"/>
<stop offset="0.8009" stop-color="#06E775"/>
<stop offset="1" stop-color="#00F076"/>
</linearGradient>
</defs>
</svg>
